<?xml version="1.0" encoding="UTF-8" standalone="no"?>
<!DOCTYPE svg PUBLIC "-//W3C//DTD SVG 1.1//EN" "http://www.w3.org/Graphics/SVG/1.1/DTD/svg11.dtd">
<svg xmlns="http://www.w3.org/2000/svg" version="1.1" viewBox="0 0 2864 496">
<path fill="#657d91" d="
  M 842.44 492.77
  Q 810.77 489.93 780.72 479.59
  Q 742.83 466.56 710.81 443.44
  Q 694.51 431.67 680.16 416.98
  Q 673.29 409.95 666.96 401.97
  Q 646.23 375.85 632.44 345.31
  Q 630.70 341.47 625.97 327.51
  Q 619.98 309.81 617.31 291.31
  Q 616.35 284.63 615.00 277.99
  Q 614.26 274.34 614.19 270.62
  Q 613.84 250.04 614.21 226.44
  Q 614.23 224.60 614.85 221.13
  Q 615.16 219.36 615.23 217.55
  Q 615.32 215.47 615.64 214.00
  Q 617.00 207.66 617.82 201.24
  Q 618.66 194.56 619.93 189.80
  Q 621.51 183.86 623.13 177.92
  Q 624.98 171.13 626.73 166.18
  Q 635.09 142.54 648.02 121.07
  Q 650.66 116.68 654.74 111.08
  Q 658.29 106.21 661.81 101.33
  Q 664.67 97.37 668.80 92.71
  Q 671.25 89.93 673.60 87.07
  Q 676.55 83.49 678.49 81.49
  Q 686.66 73.05 699.25 62.25
  Q 705.04 57.28 709.60 53.87
  Q 712.54 51.67 720.53 46.27
  Q 740.55 32.71 760.75 24.25
  Q 783.08 14.90 801.50 10.25
  Q 809.42 8.25 822.39 5.94
  Q 832.89 4.06 842.20 3.22
  Q 862.67 1.38 883.22 1.73
  Q 898.37 1.99 901.78 2.13
  Q 911.05 2.51 920.26 3.92
  Q 928.23 5.13 936.19 6.44
  Q 946.52 8.13 968.50 15.13
  Q 1014.19 29.67 1051.58 59.11
  Q 1059.52 65.37 1066.67 72.21
  Q 1091.87 96.31 1109.31 126.19
  Q 1124.21 151.72 1132.00 181.00
  Q 1133.51 186.69 1136.16 197.87
  Q 1137.21 202.32 1137.91 208.87
  Q 1138.45 213.90 1139.44 219.94
  Q 1139.67 221.36 1140.50 227.65
  Q 1141.00 231.47 1141.00 235.40
  Q 1141.00 247.31 1141.00 259.22
  Q 1141.00 265.31 1140.15 271.22
  Q 1139.30 277.19 1138.40 283.16
  Q 1138.39 283.23 1137.54 291.88
  Q 1137.00 297.42 1135.03 302.67
  Q 1134.60 303.80 1134.47 305.43
  Q 1134.37 306.71 1134.00 308.25
  Q 1128.10 332.96 1117.24 354.96
  Q 1094.45 401.13 1054.06 435.06
  Q 1047.12 440.90 1043.75 443.27
  Q 1022.68 458.08 999.44 469.19
  Q 975.67 480.55 947.82 486.92
  Q 946.88 487.14 942.64 487.81
  Q 940.03 488.22 937.51 489.03
  Q 930.93 491.17 924.00 491.50
  Q 920.04 491.69 914.79 492.61
  Q 910.01 493.46 905.63 493.57
  Q 901.41 493.67 897.20 493.94
  Q 891.49 494.31 888.78 494.37
  Q 872.51 494.72 856.25 493.75
  Q 851.68 493.48 843.69 493.56
  Q 843.30 493.57 843.11 493.27
  C 842.91 492.98 842.66 492.79 842.44 492.77
  Z
  M 772.71 326.54
  Q 775.03 330.61 779.31 335.94
  Q 792.69 352.56 808.60 362.45
  Q 828.21 374.62 850.73 379.48
  Q 852.79 379.93 855.81 380.24
  Q 858.37 380.51 860.92 380.88
  Q 866.27 381.66 868.61 381.81
  Q 881.98 382.69 895.21 380.61
  Q 895.90 380.50 902.34 379.65
  Q 905.93 379.18 909.41 378.21
  Q 910.49 377.91 919.69 375.08
  Q 931.56 371.42 943.56 364.06
  Q 971.11 347.16 986.11 320.09
  Q 993.29 307.11 997.63 292.99
  Q 999.29 287.57 1000.77 278.98
  Q 1002.00 271.88 1003.28 264.80
  Q 1003.54 263.38 1003.52 260.31
  Q 1003.52 258.50 1003.75 255.75
  Q 1004.47 247.21 1003.65 236.19
  Q 1003.20 230.24 1001.75 222.41
  Q 999.75 211.60 999.00 208.75
  Q 988.12 167.17 955.02 139.97
  Q 946.92 133.31 937.63 128.64
  Q 930.11 124.85 923.50 122.23
  Q 916.25 119.35 908.52 117.94
  Q 905.90 117.46 904.15 117.03
  Q 901.97 116.50 899.78 116.00
  Q 896.52 115.24 893.15 115.12
  Q 879.66 114.64 866.16 114.84
  Q 858.59 114.96 851.96 116.34
  Q 841.74 118.46 833.56 121.31
  Q 802.68 132.09 781.37 158.09
  Q 772.43 169.01 764.19 185.19
  Q 762.22 189.06 761.17 191.94
  Q 759.04 197.80 758.98 197.93
  Q 756.83 203.25 755.60 208.85
  Q 753.66 217.72 753.58 218.07
  Q 750.88 229.87 751.41 242.02
  Q 751.47 243.38 751.23 245.45
  Q 751.04 247.20 751.15 248.93
  Q 751.44 253.15 751.42 254.09
  Q 751.18 267.42 754.18 280.40
  Q 754.19 280.47 754.97 285.15
  Q 755.32 287.29 756.25 290.25
  Q 761.21 306.02 767.06 316.94
  Q 768.67 319.93 769.83 321.79
  Q 771.78 324.90 772.71 326.54
  Z"
/>
<path fill="#4e6981" d="
  M 0.00 485.69
  Q 0.00 369.44 0.00 253.19
  Q 104.34 252.87 208.68 252.99
  Q 208.75 252.99 217.31 253.21
  Q 225.51 253.41 233.54 252.15
  Q 245.04 250.35 252.97 247.53
  Q 262.32 244.20 270.01 237.78
  Q 274.76 233.81 278.14 229.88
  Q 282.08 225.28 284.19 220.19
  Q 286.26 215.17 288.34 207.65
  Q 290.36 200.36 290.81 194.70
  Q 291.77 182.74 289.25 169.00
  Q 286.95 156.44 278.19 144.31
  Q 269.49 132.28 257.18 126.83
  Q 251.61 124.36 244.25 122.38
  Q 238.49 120.83 230.81 119.69
  Q 219.41 118.00 217.00 118.00
  Q 108.87 118.00 0.75 118.03
  Q 0.30 118.03 0.00 117.69
  Q 0.00 64.69 0.00 11.69
  Q 0.58 11.00 2.50 11.00
  Q 108.50 11.00 214.50 11.00
  Q 230.62 11.00 241.38 11.38
  Q 247.43 11.59 255.16 12.77
  Q 262.02 13.83 268.90 14.74
  Q 273.91 15.41 280.46 16.98
  Q 284.89 18.03 291.94 19.56
  Q 305.03 22.40 323.89 30.24
  Q 350.73 41.40 373.05 59.95
  Q 373.69 60.48 374.73 61.75
  Q 375.40 62.59 376.44 63.56
  Q 381.81 68.65 387.69 74.99
  Q 393.64 81.42 397.92 87.31
  Q 406.80 99.56 413.36 113.18
  Q 417.46 121.69 420.46 131.85
  Q 425.38 148.53 427.00 163.00
  Q 429.45 184.84 426.80 210.74
  Q 426.73 211.38 425.92 216.21
  Q 425.61 218.04 425.53 219.90
  Q 425.44 221.87 424.97 223.52
  Q 424.09 226.62 423.52 229.79
  Q 422.78 233.92 421.57 237.38
  Q 420.67 239.95 419.91 242.57
  Q 418.93 245.94 418.26 247.75
  Q 400.70 295.26 358.94 324.19
  Q 352.59 328.59 343.26 333.81
  Q 335.19 338.33 326.77 341.87
  Q 311.32 348.37 298.19 351.94
  Q 286.70 355.06 268.57 358.22
  Q 264.43 358.94 259.35 359.23
  Q 254.73 359.49 250.10 359.88
  Q 249.99 359.89 247.40 359.96
  Q 246.05 359.99 244.75 360.34
  Q 243.13 360.77 242.18 360.82
  Q 222.35 361.91 202.50 361.92
  Q 169.53 361.95 136.56 362.06
  C 136.28 362.06 136.06 362.29 136.06 362.57
  L 136.00 485.23
  C 136.00 485.62 135.69 485.94 135.30 485.94
  Q 68.72 486.05 1.75 486.00
  Q 0.48 486.00 0.00 485.69
  Z"
/>
<rect fill="#aab9c1" x="2134.00" y="11.00" width="376.00" height="105.00" rx="0.58"/>
<rect fill="#d5dcdf" x="2730.00" y="11.00" width="133.00" height="473.00" rx="0.57"/>
<path fill="#7d92a3" d="
  M 1595.63 436.81
  C 1595.21 436.81 1594.81 436.60 1594.58 436.25
  Q 1581.88 417.00 1570.24 397.78
  Q 1546.08 357.90 1521.44 318.31
  Q 1498.25 281.07 1466.82 226.85
  Q 1461.96 218.46 1457.13 209.36
  Q 1430.38 158.90 1417.06 134.69
  Q 1395.78 95.98 1375.01 56.99
  Q 1364.03 36.39 1352.32 16.19
  Q 1351.46 14.70 1351.25 13.00
  C 1351.19 12.47 1351.60 12.00 1352.14 12.00
  L 1460.06 12.19
  C 1460.37 12.19 1460.66 12.35 1460.83 12.62
  L 1625.43 280.97
  Q 1626.95 283.45 1628.43 280.95
  L 1788.01 12.24
  C 1788.16 11.97 1788.45 11.81 1788.75 11.81
  L 1892.94 12.31
  C 1893.24 12.31 1893.49 12.52 1893.53 12.80
  Q 1893.91 15.19 1892.44 17.94
  Q 1862.82 73.29 1833.16 128.63
  Q 1830.46 133.67 1823.76 146.28
  Q 1770.54 246.48 1702.81 356.06
  Q 1694.35 369.75 1654.94 436.26
  C 1654.79 436.53 1654.50 436.69 1654.20 436.69
  L 1595.63 436.81
  Z"
/>
<rect fill="#aab9c1" x="2134.00" y="194.00" width="376.00" height="102.00" rx="0.58"/>
<path fill="#7d92a3" d="
  M 1473.81 482.14
  C 1473.81 483.03 1473.09 483.75 1472.20 483.75
  L 1352.23 483.75
  Q 1350.25 483.75 1350.25 481.77
  Q 1350.25 342.10 1350.25 202.46
  Q 1350.25 201.18 1350.68 200.66
  Q 1351.30 199.90 1352.48 200.35
  C 1352.76 200.46 1353.01 200.69 1353.18 201.00
  L 1473.11 417.12
  Q 1473.74 418.26 1473.74 419.56
  L 1473.81 482.14
  Z"
/>
<path fill="#7d92a3" d="
  M 1776.67 483.30
  C 1776.27 483.14 1776.00 482.75 1776.00 482.31
  L 1776.25 419.13
  Q 1776.26 418.22 1776.69 417.43
  L 1896.82 201.00
  C 1896.99 200.70 1897.24 200.48 1897.52 200.39
  Q 1899.74 199.68 1899.75 202.50
  Q 1899.90 231.50 1899.89 239.75
  Q 1899.75 360.50 1899.75 481.74
  Q 1899.75 483.75 1897.74 483.75
  Q 1839.25 483.75 1780.25 483.99
  Q 1778.39 484.00 1776.67 483.30
  Z"
/>
<rect fill="#aab9c1" x="2134.00" y="379.00" width="376.00" height="105.00" rx="0.58"/>
</svg>
